<svg width="40" height="40" xmlns="http://www.w3.org/2000/svg">

    <g>
        <title>Layer 1</title>
        <path stroke="#000" id="svg_1" d="m8.0489,30.5494c1.5609,-0.0127 3.12179,-0.02541 4.68268,-0.03812c0.01028,-2.00959 0.02055,-4.01918 0.03083,-6.02877c1.55344,0 3.10688,0 4.66032,0c0,-2.02192 0,-4.04384 0,-6.06575c1.59322,0 3.18644,0 4.77966,0c0,-1.9726 0,-3.94521 0,-5.91781c1.57355,0 3.1471,0 4.72065,0c0,-1.9726 0,-3.94521 0,-5.91781c2.34065,0 4.68131,0 7.02196,0c0,0.9863 0,1.9726 0,2.9589c-1.55388,0 -3.10776,0 -4.66164,0c0,1.99726 0,3.99452 0,5.99178c-1.57355,0 -3.1471,0 -4.72065,0c0,1.99726 0,3.99452 0,5.99178c-1.57355,0 -3.1471,0 -4.72065,0c0,1.99726 0,3.99452 0,5.99178c-1.59322,0 -3.18644,0 -4.77966,0c0,2.02192 0,4.04384 0,6.06575c-2.36032,0 -4.72065,0 -7.08097,0c0.10522,-0.98014 -0.17938,-2.08535 0.06747,-3.03175l0,0z" fill="#fff"/>
    </g>
</svg>